solid Created by Gmsh
facet normal 0 1 0
  outer loop
    vertex -0.005750000000000002 0 -0.0055
    vertex -0.006250000000000002 0 -0.0055
    vertex -0.006250000000000002 0 0
  endloop
endfacet
facet normal 0 1 -0
  outer loop
    vertex -0.005750000000000002 0 -0.0055
    vertex -0.006250000000000002 0 0
    vertex -0.005750000000000002 0 0
  endloop
endfacet
facet normal -1 0 0
  outer loop
    vertex -0.006250000000000002 -0.01795929214352104 -0.0055
    vertex -0.006250000000000002 0 0
    vertex -0.006250000000000002 0 -0.0055
  endloop
endfacet
facet normal -1 0 0
  outer loop
    vertex -0.006250000000000002 -0.01795929214352104 -0.0055
    vertex -0.006250000000000002 -0.01795929214352104 0
    vertex -0.006250000000000002 0 0
  endloop
endfacet
facet normal 1 0 0
  outer loop
    vertex -0.005750000000000002 -0.01295929214352105 -0.0055
    vertex -0.005750000000000002 0 -0.0055
    vertex -0.005750000000000002 0 0
  endloop
endfacet
facet normal 1 0 0
  outer loop
    vertex -0.005750000000000002 -0.01295929214352105 -0.0055
    vertex -0.005750000000000002 0 0
    vertex -0.005750000000000002 -0.01295929214352105 0
  endloop
endfacet
facet normal 0 -0 -1
  outer loop
    vertex -0.005750000000000002 -0.01495929214352104 -0.005499999999999999
    vertex -0.005750000000000002 -0.01795929214352104 -0.005499999999999999
    vertex -0.006250000000000002 -0.01795929214352104 -0.005499999999999999
  endloop
endfacet
facet normal 0 0 -1
  outer loop
    vertex 1.734723475976807e-18 -0.004999999999999999 -0.005499999999999999
    vertex -0.005750000000000002 -0.01495929214352104 -0.005499999999999999
    vertex -0.005750000000000002 -0.01295929214352105 -0.005499999999999999
  endloop
endfacet
facet normal -0 -0 -1
  outer loop
    vertex -0.005750000000000002 0 -0.005499999999999999
    vertex -0.005750000000000002 -0.01295929214352105 -0.005499999999999999
    vertex -0.006250000000000002 0 -0.005499999999999999
  endloop
endfacet
facet normal 0 0 -1
  outer loop
    vertex -0.005750000000000002 -0.01295929214352105 -0.005499999999999999
    vertex 0 -0.002999999999999999 -0.005499999999999999
    vertex 1.734723475976807e-18 -0.004999999999999999 -0.005499999999999999
  endloop
endfacet
facet normal 0 0 -1
  outer loop
    vertex -0.006250000000000002 -0.01795929214352104 -0.005499999999999999
    vertex -0.006250000000000002 0 -0.005499999999999999
    vertex -0.005750000000000002 -0.01295929214352105 -0.005499999999999999
  endloop
endfacet
facet normal 0 0 -1
  outer loop
    vertex -0.006250000000000002 -0.01795929214352104 -0.005499999999999999
    vertex -0.005750000000000002 -0.01295929214352105 -0.005499999999999999
    vertex -0.005750000000000002 -0.01495929214352104 -0.005499999999999999
  endloop
endfacet
facet normal 0 0 1
  outer loop
    vertex -0.005750000000000002 -0.01495929214352104 8.673617379884035e-19
    vertex -0.006250000000000002 -0.01795929214352104 8.673617379884035e-19
    vertex -0.005750000000000002 -0.01795929214352104 8.673617379884035e-19
  endloop
endfacet
facet normal 0 0 1
  outer loop
    vertex 1.734723475976807e-18 -0.004999999999999999 8.673617379884035e-19
    vertex -0.005750000000000002 -0.01295929214352105 8.673617379884035e-19
    vertex -0.005750000000000002 -0.01495929214352104 8.673617379884035e-19
  endloop
endfacet
facet normal 0 0 1
  outer loop
    vertex -0.005750000000000002 0 8.673617379884035e-19
    vertex -0.006250000000000002 0 8.673617379884035e-19
    vertex -0.005750000000000002 -0.01295929214352105 8.673617379884035e-19
  endloop
endfacet
facet normal 0 0 1
  outer loop
    vertex -0.005750000000000002 -0.01295929214352105 8.673617379884035e-19
    vertex 1.734723475976807e-18 -0.004999999999999999 8.673617379884035e-19
    vertex 0 -0.002999999999999999 8.673617379884035e-19
  endloop
endfacet
facet normal 0 0 1
  outer loop
    vertex -0.006250000000000002 -0.01795929214352104 8.673617379884035e-19
    vertex -0.005750000000000002 -0.01295929214352105 8.673617379884035e-19
    vertex -0.006250000000000002 0 8.673617379884035e-19
  endloop
endfacet
facet normal 0 0 1
  outer loop
    vertex -0.006250000000000002 -0.01795929214352104 8.673617379884035e-19
    vertex -0.005750000000000002 -0.01495929214352104 8.673617379884035e-19
    vertex -0.005750000000000002 -0.01295929214352105 8.673617379884035e-19
  endloop
endfacet
facet normal -0.866025 0.5 0
  outer loop
    vertex 8.673617379884035e-19 -0.002999999999999999 -0.0055
    vertex -0.005750000000000002 -0.01295929214352105 -0.0055
    vertex -0.005750000000000002 -0.01295929214352105 0
  endloop
endfacet
facet normal -0.866025 0.5 0
  outer loop
    vertex 8.673617379884035e-19 -0.002999999999999999 -0.0055
    vertex -0.005750000000000002 -0.01295929214352105 0
    vertex 8.673617379884035e-19 -0.002999999999999999 0
  endloop
endfacet
facet normal 1 0 0
  outer loop
    vertex 0 -0.005 -0.0055
    vertex 0 -0.003 -0.0055
    vertex 0 -0.003 0
  endloop
endfacet
facet normal 1 0 0
  outer loop
    vertex 0 -0.005 -0.0055
    vertex 0 -0.003 0
    vertex 0 -0.005 0
  endloop
endfacet
facet normal 0 -1 0
  outer loop
    vertex -0.005750000000000002 -0.01795929214352104 -0.0055
    vertex -0.006250000000000002 -0.01795929214352104 0
    vertex -0.006250000000000002 -0.01795929214352104 -0.0055
  endloop
endfacet
facet normal 0 -1 0
  outer loop
    vertex -0.005750000000000002 -0.01795929214352104 -0.0055
    vertex -0.005750000000000002 -0.01795929214352104 0
    vertex -0.006250000000000002 -0.01795929214352104 0
  endloop
endfacet
facet normal 0.866025 -0.5 0
  outer loop
    vertex 1.734723475976807e-18 -0.004999999999999999 -0.0055
    vertex -0.005750000000000002 -0.01495929214352104 0
    vertex -0.005750000000000002 -0.01495929214352104 -0.0055
  endloop
endfacet
facet normal 0.866025 -0.5 0
  outer loop
    vertex 1.734723475976807e-18 -0.004999999999999999 -0.0055
    vertex 1.734723475976807e-18 -0.004999999999999999 0
    vertex -0.005750000000000002 -0.01495929214352104 0
  endloop
endfacet
facet normal 1 0 0
  outer loop
    vertex -0.005750000000000002 -0.01795929214352104 -0.0055
    vertex -0.005750000000000002 -0.01495929214352104 -0.0055
    vertex -0.005750000000000002 -0.01495929214352104 0
  endloop
endfacet
facet normal 1 0 0
  outer loop
    vertex -0.005750000000000002 -0.01795929214352104 -0.0055
    vertex -0.005750000000000002 -0.01495929214352104 0
    vertex -0.005750000000000002 -0.01795929214352104 0
  endloop
endfacet
facet normal 0 1 0
  outer loop
    vertex 0 0 -0.0063
    vertex -0.006250000000000002 0 -0.0063
    vertex -0.006250000000000002 0 -0.0055
  endloop
endfacet
facet normal 0 1 -0
  outer loop
    vertex 0 0 -0.0063
    vertex -0.006250000000000002 0 -0.0055
    vertex 0 0 -0.0055
  endloop
endfacet
facet normal 1 0 0
  outer loop
    vertex 0 -0.01795929214352104 -0.0063
    vertex 0 0 -0.0063
    vertex 0 0 -0.0055
  endloop
endfacet
facet normal 1 0 0
  outer loop
    vertex 0 -0.01795929214352104 -0.0063
    vertex 0 0 -0.0055
    vertex 0 -0.01795929214352104 -0.0055
  endloop
endfacet
facet normal 0 0 -1
  outer loop
    vertex -0.006250000000000002 0 -0.006300000000000001
    vertex 0 0 -0.006300000000000001
    vertex 0 -0.01795929214352104 -0.006300000000000001
  endloop
endfacet
facet normal 0 0 -1
  outer loop
    vertex -0.006250000000000002 0 -0.006300000000000001
    vertex 0 -0.01795929214352104 -0.006300000000000001
    vertex -0.006250000000000002 -0.01795929214352104 -0.006300000000000001
  endloop
endfacet
facet normal -0 0 1
  outer loop
    vertex -0.006250000000000002 0 -0.005500000000000001
    vertex 0 -0.01795929214352104 -0.005500000000000001
    vertex 0 0 -0.005500000000000001
  endloop
endfacet
facet normal 0 0 1
  outer loop
    vertex -0.006250000000000002 0 -0.005500000000000001
    vertex -0.006250000000000002 -0.01795929214352104 -0.005500000000000001
    vertex 0 -0.01795929214352104 -0.005500000000000001
  endloop
endfacet
facet normal -1 0 0
  outer loop
    vertex -0.006250000000000002 -0.01795929214352104 -0.0063
    vertex -0.006250000000000002 0 -0.0055
    vertex -0.006250000000000002 0 -0.0063
  endloop
endfacet
facet normal -1 0 0
  outer loop
    vertex -0.006250000000000002 -0.01795929214352104 -0.0063
    vertex -0.006250000000000002 -0.01795929214352104 -0.0055
    vertex -0.006250000000000002 0 -0.0055
  endloop
endfacet
facet normal 0 -1 0
  outer loop
    vertex 0 -0.01795929214352104 -0.0063
    vertex -0.006250000000000002 -0.01795929214352104 -0.0055
    vertex -0.006250000000000002 -0.01795929214352104 -0.0063
  endloop
endfacet
facet normal 0 -1 0
  outer loop
    vertex 0 -0.01795929214352104 -0.0063
    vertex 0 -0.01795929214352104 -0.0055
    vertex -0.006250000000000002 -0.01795929214352104 -0.0055
  endloop
endfacet
endsolid Created by Gmsh
